<?xml version="1.0" encoding="utf-8"?>
<!-- Generator: Adobe Illustrator 25.4.1, SVG Export Plug-In . SVG Version: 6.00 Build 0)  -->
<svg version="1.1" id="Layer_1" xmlns="http://www.w3.org/2000/svg" xmlns:xlink="http://www.w3.org/1999/xlink" x="0px" y="0px"
	 width="128px" height="128px" viewBox="0 0 128 128" style="enable-background:new 0 0 128 128;" xml:space="preserve">
<style type="text/css">
	.st0{fill:#161618;}
	.st1{fill:#FEFEFE;}
</style>
<circle class="st0" cx="64" cy="64" r="63.5"/>
<g>
	<path class="st1" d="M97.5,53.4c-0.7,0-1,0.3-1.3,0.5c-7.7,4.4-15.4,8.9-23.1,13.3c-0.9,0.5-1.3,1.1-1.3,2.2c0.1,2.5,0,4.9,0,7.4
		c0,0.8-0.2,1.2-0.9,1.6c-1.4,0.8-2.9,1.6-4.3,2.5c-0.7,0.4-0.9,0.2-0.9-0.5c0-5,0-10.1,0-15.1c0-0.6,0.4-0.9,0.8-1.1
		c11.9-6.9,23.8-13.7,35.7-20.6c0.9-0.5,1.1-0.3,1.1,0.7c0,13.4,0,26.8,0,40.2c0,0.8-0.3,1.2-0.9,1.6c-11.8,7.3-23.7,14.5-35.5,21.8
		c-0.8,0.5-1.3,0.6-1.2-0.6c0-0.1,0-0.2,0-0.3c0-1.8-0.5-3.9,0.3-5.3c0.8-1.4,2.8-2,4.4-3c8.6-5.3,17.3-10.6,26-15.9
		c0.6-0.4,1.1-0.7,1.1-1.5C97.5,71.9,97.5,62.7,97.5,53.4z"/>
	<path class="st1" d="M24.5,42.8c1.9,1.1,3.6,2.1,5.4,3.1c0.8,0.4,0.6,1.1,0.6,1.8c0,10.8,0,21.6,0,32.5c0,1.3,0.3,2,1.5,2.7
		c7.6,4.6,15.2,9.3,22.8,14c0.4,0.2,0.8,0.7,1.2,0.5c0.5-0.2,0.2-0.8,0.2-1.3c0-8.9,0-17.8,0-26.8c0-0.9-0.2-1.5-1.1-1.9
		c-2.2-1.2-4.3-2.5-6.4-3.7c-0.6-0.3-0.9-0.7-0.9-1.4c0.1-1.9,0-3.8,0-5.6c0.4-0.3,0.7,0,0.9,0.1c4.1,2.4,8.3,4.8,12.4,7.1
		c0.7,0.4,1.1,0.7,1.1,1.6c0,14,0,27.9,0,41.9c0,0.2,0,0.5-0.1,0.7c-0.5,0.2-0.7-0.2-1-0.4c-11.8-7.2-23.6-14.5-35.4-21.7
		c-0.6-0.4-1.2-0.6-1.2-1.6C24.6,70.6,24.5,56.8,24.5,42.8z"/>
	<path class="st1" d="M27,39.7c5.6-3,11.1-6,16.6-9c6.4-3.5,12.9-7,19.4-10.4c0.6-0.3,1.1-0.6,1.8-0.2c11.9,6.5,23.8,12.9,35.7,19.3
		c0.1,0.1,0.2,0.2,0.5,0.4c-1.9,1.1-3.7,2.2-5.6,3.2c-0.7,0.4-1.2-0.2-1.7-0.5c-9.5-5.1-19-10.3-28.5-15.4c-0.9-0.5-1.6-0.5-2.5,0
		c-7.4,4.1-14.9,8-22.3,12.1c-0.4,0.2-0.7,0.4-1.2,0.7c1.3,0.8,2.5,1.5,3.6,2.2c6.7,3.8,13.3,7.7,20,11.5c0.9,0.5,1.5,0.6,2.4,0
		c1.9-1.2,3.9-2.2,5.8-3.4c0.9-0.6,1.6-0.5,2.5,0c1.4,0.9,3,1.8,4.7,2.7c-4.7,2.7-9.1,5.3-13.6,7.9c-0.5,0.3-0.8,0.2-1.3-0.1
		c-12-7-24-13.9-36.1-20.9C27.2,40,27.2,39.9,27,39.7z"/>
</g>
</svg>
